
<svg xmlns="http://www.w3.org/2000/svg" viewBox="0 0 512 512">
  <rect x="32" y="32" width="448" height="448" rx="88" fill="#111111"/>
  <g fill="#FFFFFF" stroke="none">
    <!-- P -->
    <path d="M150 120
             H220
             C275 120 310 155 310 205
             C310 255 275 290 220 290
             H195
             V390
             H150
             Z
             M195 165
             V245
             H220
             C248 245 265 229 265 205
             C265 181 248 165 220 165
             Z"/>
    <!-- C -->
    <path d="M380 180
             C355 155 325 145 292 145
             C220 145 170 196 170 256
             C170 316 220 367 292 367
             C325 367 355 357 380 332
             L350 302
             C334 318 315 324 295 324
             C248 324 215 293 215 256
             C215 219 248 188 295 188
             C315 188 334 194 350 210
             Z"
             transform="translate(40,0)"/>
  </g>
</svg>
